# xmcd
#
# Track frame offsets: 
#        150
#        21842
#        45237
#        65380
#        86816
#        109961
#        127708
#        149753
#        170547
#        192007
#        216169
#        238387
#        260976
#        281000
#        302733
#        318308
#
# Disc length: 4564 seconds
#
# Revision: 0
# Processed by: cddbd v1.5.2PL0 Copyright (c) Steve Scherf et al.
# Submitted via: ExactAudioCopy v1.0b3
#
DISCID=f111d210
DTITLE=群星 - 试音宝典13号
DYEAR=2011
DGENRE=stereo
TTITLE0=梅花三弄
TTITLE1=红红好姑娘
TTITLE2=望春风
TTITLE3=渔水情歌
TTITLE4=美人吟
TTITLE5=心恋
TTITLE6=风中的遗憾
TTITLE7=云淡风轻
TTITLE8=抱紧眼前人
TTITLE9=默默祝福你
TTITLE10=呼伦贝尔大草原
TTITLE11=莲心
TTITLE12=梦向何处寻
TTITLE13=军港之夜
TTITLE14=驿动的心
TTITLE15=从不放弃
EXTD=
EXTT0=
EXTT1=
EXTT2=
EXTT3=
EXTT4=
EXTT5=
EXTT6=
EXTT7=
EXTT8=
EXTT9=
EXTT10=
EXTT11=
EXTT12=
EXTT13=
EXTT14=
EXTT15=
PLAYORDER=
